<?xml version="1.0" encoding="UTF-8" standalone="no"?>
<svg
   xmlns:dc="http://purl.org/dc/elements/1.1/"
   xmlns:cc="http://creativecommons.org/ns#"
   xmlns:rdf="http://www.w3.org/1999/02/22-rdf-syntax-ns#"
   xmlns:svg="http://www.w3.org/2000/svg"
   xmlns="http://www.w3.org/2000/svg"
   xmlns:sodipodi="http://sodipodi.sourceforge.net/DTD/sodipodi-0.dtd"
   xmlns:inkscape="http://www.inkscape.org/namespaces/inkscape"
   width="1385px"
   height="479px"
   viewBox="0 0 1385 479"
   version="1.1"
   id="SVGRoot"
   sodipodi:docname="Viettel.svg"
   inkscape:version="1.0.1 (3bc2e813f5, 2020-09-07)">
  <defs
     id="defs2785" />
  <sodipodi:namedview
     id="base"
     pagecolor="#ffffff"
     bordercolor="#666666"
     borderopacity="1.0"
     inkscape:pageopacity="0.0"
     inkscape:pageshadow="2"
     inkscape:zoom="0.49017025"
     inkscape:cx="403.39657"
     inkscape:cy="484.07168"
     inkscape:document-units="px"
     inkscape:current-layer="layer1"
     inkscape:document-rotation="0"
     showgrid="false"
     inkscape:window-width="1920"
     inkscape:window-height="1001"
     inkscape:window-x="-9"
     inkscape:window-y="-9"
     inkscape:window-maximized="1" />
  <metadata
     id="metadata2788">
    <rdf:RDF>
      <cc:Work
         rdf:about="">
        <dc:format>image/svg+xml</dc:format>
        <dc:type
           rdf:resource="http://purl.org/dc/dcmitype/StillImage" />
        <dc:title />
      </cc:Work>
    </rdf:RDF>
  </metadata>
  <g
     inkscape:label="Lớp 1"
     inkscape:groupmode="layer"
     id="layer1">
    <path
       id="path903"
       style="fill:#ef0032;fill-opacity:1;fill-rule:evenodd;stroke-width:3.98111"
       d="m 315.76999,4.2207321 c -12.83743,0 -15.62161,0.3065403 -18.94608,2.0884339 -4.47558,2.3987264 -7.27832,6.46878 -8.33607,12.106712 -0.89701,4.781222 -0.97906,38.231355 -0.0972,39.658075 1.04554,1.691768 2.50819,1.158061 3.82363,-1.399646 2.04655,-3.978532 6.65777,-8.404482 10.66744,-10.239045 2.42926,-1.111468 8.35977,-1.951315 16.7119,-2.366599 14.04865,-0.698532 18.1232,-2.11617 22.34131,-7.775307 1.75356,-2.352747 2.17901,-4.676579 2.2649,-12.376044 0.0931,-8.424309 -0.18376,-9.860532 -2.48125,-12.923542 -4.17102,-5.5607997 -8.82069,-6.7730379 -25.94853,-6.7730379 z M 1270.478,12.81728 c -17.6001,-0.01084 -22.9582,1.72158 -26.9862,8.720204 l -2.3579,4.088546 v 91.09173 c 0,98.87169 -0.1155,96.71455 5.9915,109.49463 4.2908,8.97866 14.835,19.12537 25.2158,24.2664 2.6629,1.31886 5.5676,2.81173 6.4552,3.31589 1.5278,0.86757 7.4075,2.63808 18.2924,5.51026 2.663,0.70267 10.8907,1.5812 18.2881,1.95155 22.5302,1.12803 41.925,0.23163 45.7999,-2.11492 6.7562,-4.09111 7.2837,-5.37101 7.8016,-18.90184 0.3757,-9.81312 0.1635,-12.65494 -1.0066,-13.39597 -0.8165,-0.51727 -5.7507,-0.9451 -10.9631,-0.95368 -10.6741,-0.0181 -29.2216,-1.89592 -32.4832,-3.28498 -14.9618,-6.37176 -18.4341,-9.35257 -23.4099,-20.10279 l -2.3843,-5.14381 -0.3488,-85.44016 c -0.3373,-82.368318 -0.4259,-85.591653 -2.4594,-89.577271 -1.1598,-2.273918 -4.0234,-5.34683 -6.3668,-6.826049 -4.009,-2.530747 -5.1369,-2.688697 -19.0783,-2.69774 z m -581.62976,0.0088 c -14.16396,0 -14.49875,0.05789 -18.61941,3.073048 -8.84968,6.474839 -8.13081,3.239499 -8.94982,40.236475 l -0.0881,4.03557 h -15.51537 c -8.53274,0 -16.27901,0.294254 -17.21513,0.65346 -1.40158,0.537857 -1.69998,2.637085 -1.69998,11.890361 0,12.09897 0.87894,15.041166 5.89887,19.73632 2.63928,2.468682 3.83899,2.718039 14.57494,3.050961 8.10591,0.251372 12.06563,0.808798 12.89687,1.810269 0.84253,1.015282 1.26165,18.353176 1.40859,58.277336 l 0.20751,56.83353 2.84773,7.24107 c 4.20115,10.68982 8.43597,16.94785 14.97234,22.11174 3.20693,2.53369 6.43713,5.0968 7.17929,5.69571 2.26403,1.82679 11.28459,6.12494 16.40717,7.81948 14.28354,4.72492 18.48243,5.24478 46.92562,5.81051 l 28.0989,0.56074 3.4791,-2.56528 c 5.89187,-4.33422 7.5724,-9.04418 7.5724,-21.2331 0,-8.75306 -0.30607,-10.80357 -1.69997,-11.33845 -0.93613,-0.35921 -5.84304,-0.65347 -10.90572,-0.65347 -11.82307,0 -27.33299,-1.81292 -34.19647,-3.99581 -12.00212,-3.81719 -20.18582,-12.80375 -22.72992,-24.96403 -2.15709,-10.27718 -2.1702,-98.254094 -0.0226,-100.037089 1.05955,-0.879275 16.68251,-1.141873 56.21972,-0.940459 l 54.75392,0.282585 0.59614,57.562043 c 0.49892,48.23059 0.87011,58.44021 2.29159,62.95314 6.10279,19.37559 20.95532,32.95954 43.38005,39.68013 3.55077,1.06414 8.07585,2.42323 10.05798,3.02008 1.9821,0.59683 9.97162,1.40929 17.75403,1.80142 h 0.009 c 22.03523,1.11033 41.46509,0.38716 45.64521,-1.69546 6.23119,-3.10432 7.77519,-7.07426 7.77519,-19.98799 0,-6.24348 -0.24684,-11.99854 -0.54753,-12.78666 -0.4094,-1.07205 -2.64312,-1.33303 -8.87476,-1.03759 -8.88178,0.4211 -30.57337,-1.55038 -34.15218,-3.10397 -15.54993,-6.75058 -17.43732,-8.28999 -22.91956,-18.69429 l -2.89654,-5.49262 -0.35763,-49.14211 c -0.24574,-33.83076 0.007,-49.816955 0.80794,-51.314428 1.11676,-2.086872 2.33907,-2.188245 30.14318,-2.507885 l 28.97762,-0.331141 3.39092,-3.227576 c 5.54893,-5.279254 6.42854,-7.979608 6.42854,-19.73632 0,-8.7627 -0.30564,-10.816746 -1.69976,-11.351697 -0.93591,-0.359209 -16.37779,-0.65346 -34.31563,-0.65346 -28.74746,0 -32.6936,-0.204111 -33.26917,-1.704299 -0.35921,-0.936085 -0.67118,-8.561274 -0.67118,-16.945862 -0.0159,-13.814795 -0.24392,-15.644049 -2.44169,-19.524389 -1.35977,-2.400896 -4.30604,-5.347034 -6.70682,-6.706824 -3.84963,-2.180259 -5.75037,-2.430692 -18.80909,-2.454882 -17.28249,-0.03203 -22.68582,1.729561 -26.69912,8.702528 -2.15483,3.742126 -2.35331,5.558449 -2.35331,21.369963 V 60.18887 L 774.97232,59.910708 718.7526,59.632546 718.21391,41.878681 c -0.49814,-16.386044 -0.73122,-18.023188 -3.03773,-21.259591 -4.40597,-6.182155 -9.84366,-7.792986 -26.32816,-7.792986 z m 403.93646,45.455349 c -2.4893,-0.0022 -4.7844,0.03671 -6.8038,0.119226 -25.4812,1.041041 -56.0244,4.911482 -58.5202,7.417677 -0.4422,0.443842 -1.853,0.807997 -3.1349,0.807997 -3.2214,0 -17.0424,6.251274 -24.33706,11.007302 -6.22643,4.059566 -18.16435,16.31687 -18.16435,18.650159 0,0.723525 -0.72385,1.593264 -1.61161,1.9339 -0.88752,0.340641 -1.61612,1.322843 -1.61612,2.18114 0,0.8583 -0.68157,2.92978 -1.51439,4.60514 -2.81064,5.65312 -3.78609,8.40558 -5.08641,14.34527 -1.59848,7.30119 -2.56422,78.17302 -1.09053,80.00052 0.54821,0.67965 1.33513,3.77721 1.7529,6.88343 0.41754,3.10624 1.1988,5.92057 1.73526,6.25205 0.53645,0.33147 0.97568,1.43307 0.97568,2.45048 0,1.01742 1.66451,5.32491 3.69996,9.57234 3.9527,8.248 12.76327,18.13767 20.57964,23.10076 6.98213,4.43339 20.71373,10.5437 23.69693,10.5437 1.5054,0 3.766,0.54945 5.0245,1.22305 1.2587,0.67356 7.1569,1.57668 13.109,2.00894 5.9519,0.43222 42.5363,0.72804 81.2986,0.65786 l 70.4767,-0.12365 4.0841,-3.12603 c 2.2477,-1.71929 4.6,-4.08575 5.2279,-5.2586 1.6698,-3.12002 1.9234,-25.29829 0.3045,-26.64183 -0.8144,-0.67582 -25.657,-1.20702 -67.3241,-1.4438 -65.3673,-0.37141 -80.2843,-1.02563 -82.8793,-3.62054 -0.7356,-0.73566 -2.2255,-1.33781 -3.3159,-1.33781 -1.09,0 -2.5702,-0.4768 -3.2851,-1.05967 -0.7148,-0.58285 -2.9181,-2.35559 -4.8965,-3.94287 -6.3985,-5.13377 -9.0056,-10.60377 -10.6937,-22.43405 -0.8446,-5.91788 -1.6053,-11.96947 -1.6911,-13.44894 l -0.1546,-2.68891 79.2279,-0.25609 c 90.6673,-0.28958 84.5101,0.38179 94.9065,-10.29203 7.9464,-8.15842 9.325,-12.79991 9.325,-31.25138 -0.011,-16.68539 -2.4543,-28.31443 -7.6208,-36.209745 -0.5807,-0.887675 -1.3387,-2.461269 -1.6863,-3.496904 -0.3481,-1.035625 -1.0624,-1.885325 -1.5852,-1.885325 -0.5227,0 -0.9493,-0.610008 -0.9493,-1.359908 0,-1.689881 -9.4537,-12.627714 -10.9147,-12.627714 -0.5856,0 -2.6065,-1.152559 -4.4903,-2.560865 -4.6694,-3.490733 -19.275,-10.349425 -22.0367,-10.349425 -1.2344,0 -2.5067,-0.430198 -2.8303,-0.953701 -0.3235,-0.523505 -2.8949,-1.282347 -5.7131,-1.686639 -2.8183,-0.404291 -6.8168,-1.157235 -8.8881,-1.673392 -8.234,-2.051868 -35.1634,-4.014573 -52.5906,-4.031155 z m -595.85566,1.130314 c -21.93958,0.101088 -43.7327,1.592918 -56.32145,4.432945 -11.20185,2.52713 -16.08389,3.824029 -18.05855,4.794999 -15.18077,7.464462 -19.25194,9.76107 -23.45827,13.23702 -2.72451,2.251402 -6.78212,6.396732 -9.01606,9.214698 -4.5477,5.736652 -10.79991,16.959285 -10.79991,19.387505 0,0.87291 -0.70262,3.83188 -1.563,6.57436 -3.67126,11.70276 -5.61947,42.47347 -3.85437,60.93534 2.17518,22.75131 2.89292,27.99567 4.15028,30.32859 0.69673,1.29261 1.26709,3.56321 1.26709,5.04667 0,1.48344 0.432,2.96415 0.95827,3.28938 0.52628,0.32524 1.28834,1.91892 1.69548,3.54108 0.92798,3.69769 9.70531,17.00161 12.51279,18.96805 1.15291,0.80748 3.9884,3.22087 6.30058,5.36014 5.4567,5.04888 23.50735,13.62998 28.67287,13.62998 1.49836,0 3.66582,0.50086 4.81718,1.11707 1.15134,0.61619 8.26347,1.4659 15.80221,1.88533 7.5385,0.41947 43.72276,0.62466 80.41113,0.45918 l 66.70631,-0.30023 4.03115,-2.66683 c 5.91989,-3.9176 7.40737,-8.44646 7.04229,-21.42296 l -0.30473,-10.81301 -69.39939,-0.69321 c -38.17043,-0.38094 -71.3372,-1.02561 -73.70431,-1.43056 -2.3671,-0.40498 -5.83105,-1.4235 -7.69584,-2.26504 -1.8648,-0.84154 -3.95949,-1.53209 -4.65825,-1.53209 -0.69853,0 -3.38642,-1.72918 -5.9694,-3.84573 -8.30555,-6.80577 -12.02268,-15.71726 -12.53495,-30.04602 l -0.34429,-9.6827 78.54791,-0.26493 c 64.68713,-0.21598 79.11241,-0.52907 81.7709,-1.77052 1.77527,-0.82908 4.44144,-2.0673 5.92102,-2.75513 11.12003,-5.16997 18.8048,-22.87895 16.81771,-38.74854 -0.37347,-2.98186 -0.93929,-7.96222 -1.25827,-11.06911 -1.31161,-12.77655 -6.50269,-25.547508 -14.20849,-34.951393 -4.29587,-5.242413 -19.54966,-15.850663 -24.48708,-17.029752 -1.77528,-0.423977 -3.71307,-1.120971 -4.30491,-1.549762 -1.43776,-1.041716 -11.60809,-4.076868 -18.28801,-5.457294 -13.16884,-2.721341 -35.25604,-4.008619 -57.19564,-3.907526 z M 25.884337,60.20212 C 17.015,60.16154 15.389383,60.530772 14.956474,61.659162 c -0.675927,1.761333 2.343817,8.096758 22.120674,46.391398 6.112504,11.83576 13.976315,27.09056 17.475765,33.89613 9.679319,18.82295 19.614768,37.94397 20.963683,40.34687 0.664398,1.18358 3.034437,5.78297 5.262962,10.22137 2.228525,4.43843 4.928841,9.52336 6.0049,11.29872 1.076056,1.77537 2.253165,3.95588 2.613736,4.84357 2.054455,5.05724 17.775976,35.13911 21.158096,40.48373 3.2049,5.06479 6.14348,7.60232 12.17302,10.51279 2.32505,1.12228 4.95371,2.42611 5.84145,2.89642 3.04529,1.61355 34.18743,1.11067 40.24072,-0.64903 6.51467,-1.89387 13.45908,-7.66431 16.80458,-13.96995 1.25578,-2.36718 3.16964,-5.75711 4.25631,-7.53249 1.08667,-1.77536 6.81578,-12.66912 12.72936,-24.209 5.91356,-11.5399 13.76992,-26.79467 17.45813,-33.89613 10.04713,-19.34601 20.11911,-38.81743 30.42552,-58.82926 5.0828,-9.86895 9.71572,-18.82936 10.29648,-19.90851 0.58075,-1.07913 1.32946,-2.68428 1.66471,-3.571961 0.33525,-0.88768 1.0955,-2.461277 1.69095,-3.496902 1.53248,-2.664896 2.62889,-4.705573 6.79952,-12.645378 2.02054,-3.846628 4.87956,-9.227592 6.34918,-11.956588 3.58038,-6.647765 4.15164,-9.23361 2.37095,-10.711482 -1.04192,-0.864611 -7.6391,-1.0967 -22.21313,-0.781504 -20.12499,0.435254 -20.91915,0.533429 -26.96428,3.483661 -7.67753,3.746873 -14.28082,11.23832 -19.03424,21.581909 -8.39167,18.260855 -9.97027,21.611415 -10.88809,23.131675 -0.53575,0.88768 -1.4529,2.72807 -2.03975,4.08854 -1.79788,4.16888 -6.48144,14.30103 -10.78658,23.34804 -8.74026,18.36668 -14.91402,31.47004 -17.74953,37.66238 -8.31909,18.1686 -17.974,36.99916 -19.82907,38.67788 -2.00676,1.81618 -2.20004,1.78252 -4.83026,-0.84775 -1.50694,-1.50689 -5.21415,-7.9721 -8.24338,-14.36734 -3.02902,-6.39523 -8.17555,-17.19589 -11.43561,-24.00147 -15.4342,-32.22119 -20.17879,-42.27024 -26.668144,-56.48915 -1.620638,-3.55073 -6.275271,-13.28894 -10.345073,-21.639303 -4.06958,-8.35036 -7.399931,-15.659494 -7.399931,-16.243828 0,-1.851965 -12.274293,-12.855133 -17.263947,-15.475569 -4.47129,-2.348245 -6.261254,-2.54702 -26.575458,-2.936164 -4.79004,-0.09176 -8.549913,-0.149836 -11.50636,-0.163375 z M 315.7919,60.709876 c -19.2976,0 -20.27893,0.268337 -25.34363,6.931998 -2.02553,2.664924 -2.10149,5.503454 -2.37999,90.795896 -0.19488,59.67394 0.0816,89.41833 0.85676,92.29711 0.82424,3.06126 2.40147,5.156 5.65158,7.51039 l 4.51221,3.26732 17.85556,-0.33558 c 17.6306,-0.33245 17.90301,-0.37429 21.76732,-3.32469 2.59994,-1.98499 4.29813,-4.40693 5.05544,-7.21899 0.77042,-2.86168 1.04237,-32.74661 0.83891,-92.23971 -0.29274,-86.088424 -0.34519,-88.065234 -2.45052,-90.870961 -4.66049,-6.211705 -6.99889,-6.812783 -26.36364,-6.812783 z m 179.02663,34.372987 c 8.45812,-0.0061 16.86493,0.884812 28.09891,2.671247 20.28277,3.2254 33.89602,15.92239 33.89602,31.61784 0,6.79713 -2.33228,10.4158 -6.72445,10.42891 -78.26467,0.23548 -99.20552,1.1201 -102.41243,4.32698 -0.5751,0.57506 -1.81122,1.04642 -2.75074,1.04642 -0.93974,0 -3.3862,1.43211 -5.43522,3.18341 -6.38582,5.45837 -6.77621,4.67165 -5.89888,-11.83295 0.79824,-15.01121 2.63047,-20.26184 9.40896,-26.97297 5.49875,-5.44399 15.62702,-10.526248 23.43183,-11.757899 11.42271,-1.802617 19.92788,-2.704943 28.386,-2.710988 z m 586.27897,0.772671 c 17.2112,-0.170964 42.9236,1.7114 45.1861,3.973753 0.6756,0.675683 2.2832,1.227453 3.5719,1.227453 1.2886,0 2.9456,0.72831 3.6824,1.616 0.7366,0.88768 1.8216,1.61157 2.4107,1.61157 1.6386,0 8.5825,6.38215 11.3782,10.4554 3.7034,5.39535 5.9777,15.0339 4.4286,18.77378 -2.4179,5.83725 -1.2908,5.69564 -49.853,6.39334 -54.3328,0.78061 -58.0783,1.25921 -67.5096,8.64953 -6.3641,4.98685 -6.7087,4.52444 -5.8548,-7.87244 1.0554,-15.32397 3.5832,-24.39201 8.0404,-28.8583 7.0352,-7.04964 17.4608,-12.058242 31.3263,-15.051701 2.6642,-0.575175 7.4558,-0.861384 13.1928,-0.918385 z" />
    <path
       id="path848"
       style="fill:#070707;fill-opacity:1;fill-rule:evenodd;stroke-width:3.41284"
       d="m 1031.7013,370.088 c -2.1414,0.0496 -3.8474,0.29454 -4.5654,0.74974 -0.6969,0.44176 -1.0964,1.92897 -0.9237,3.44383 0.2984,2.61229 0.4431,2.67724 7.0068,3.18785 3.6858,0.28671 7.1737,0.99606 7.7534,1.57564 1.59,1.59023 -0.7531,3.89793 -3.9591,3.89793 -2.4722,0 -2.6545,0.2495 -2.6545,3.61454 0,2.02707 0.5051,3.8167 1.1518,4.07773 2.4935,1.00605 5.0942,0.52564 6.6868,-1.2343 0.9181,-1.01464 2.3328,-1.84804 3.1422,-1.84992 0.8091,-10e-4 2.819,-0.82332 4.4676,-1.82859 2.5446,-1.55136 2.9993,-2.36336 2.9993,-5.36997 0,-4.57936 -2.7545,-7.22828 -9.3412,-8.98141 -3.4188,-0.90988 -8.1949,-1.36556 -11.764,-1.28307 z m -269.22923,3.6328 c -1.29807,0 -10.55081,6.65065 -15.21402,10.93499 l -2.54478,2.33753 2.95622,3.04768 c 1.62537,1.67693 3.12689,3.05068 3.33713,3.05068 1.09166,0 17.70386,-12.42259 17.70386,-13.23899 0,-1.44165 -4.77242,-6.13189 -6.23841,-6.13189 z m 425.92393,2.67889 -5.7628,0.27428 -5.7664,0.27429 -0.2742,32.28375 c -0.1514,17.75602 -0.022,34.49567 0.3047,37.19965 0.6023,5.09183 2.2609,7.39721 6.2172,8.64618 1.1301,0.35675 9.7328,0.53238 19.1182,0.3901 17.8566,-0.27068 18.1335,-0.32718 24.7009,-5.03168 5.5571,-3.98067 8.4862,-12.47235 8.4849,-24.60065 0,-13.40842 -3.1648,-21.77223 -9.902,-26.18845 -4.3359,-2.84247 -15.0677,-4.71166 -27.0539,-4.71166 h -10.0666 v -9.26791 z m -820.89048,0.0883 -0.56062,2.23087 c -1.31502,5.23978 -0.76229,5.57134 10.21848,6.07092 5.57536,0.25366 10.65747,0.79643 11.29159,1.20686 0.88821,0.57483 1.15224,8.57316 1.15224,34.8194 v 34.07579 h 5.53446 5.53469 v -34.59086 -34.59082 h 10.60867 10.60594 v -4.61111 -4.61109 h -27.19125 z m 58.99645,0 v 39.6621 39.66213 h 5.52248 5.51909 l 0.24392,-25.59721 0.24686,-25.59418 h 13.07433 c 20.33477,0 20.46092,0.18741 20.53824,30.6685 l 0.0542,20.52289 h 5.53151 5.53447 V 433.4455 c 0,-12.30235 -0.42726,-23.88491 -0.94155,-25.7374 -1.0331,-3.71894 -6.96749,-9.69302 -10.33175,-10.4016 -9.34089,-1.96758 -13.24409,-2.3711 -22.89696,-2.3711 h -11.02327 v -9.22521 -9.2222 h -5.53468 z m 427.52745,0.4602 -0.24098,38.27845 c -0.13337,21.05324 -0.0339,38.81933 0.21928,39.47927 0.32237,0.84014 2.05401,1.11737 5.77499,0.92345 l 5.31541,-0.27733 0.46321,-25.3656 0.46002,-25.3656 h 12.54717 c 20.13358,0 19.58493,-0.77638 20.1971,28.59308 l 0.46274,22.13812 h 5.53176 5.53446 l 0.25003,-21.61698 c 0.2012,-17.56284 -0.0226,-22.42255 -1.18253,-25.92332 -3.15447,-9.49733 -11.93453,-12.87628 -33.46629,-12.87628 H 865.6253 l -0.26223,-8.99362 -0.26495,-8.99359 h -5.53468 z m 231.08188,17.85312 -1.0515,2.30403 c -0.5774,1.26754 -0.7817,3.37244 -0.4541,4.67815 l 0.5975,2.37411 16.8141,0.0945 c 9.2485,0.0507 17.8558,0.37167 19.124,0.7162 2.9437,0.79973 5.6549,6.02476 5.3238,10.25838 l -0.2527,3.23053 -18.4476,0.46019 c -17.0338,0.42585 -18.6625,0.61499 -21.248,2.45945 -2.9126,2.07774 -4.1979,4.1399 -5.8851,9.43857 -3.2519,10.21208 2.267,23.29957 10.2705,24.35379 1.6654,0.21927 11.8829,0.34865 22.7082,0.28952 l 19.6845,-0.10675 2.2828,-2.65755 2.2827,-2.65452 -0.2897,-22.39717 -0.2893,-22.39414 -2.8557,-3.54136 c -4.4504,-5.5189 -7.4085,-6.18445 -29.1874,-6.56767 z m -27.6084,0.0425 -0.2744,24.90539 c -0.2079,18.98995 -0.5587,25.18996 -1.4783,26.10314 -0.8731,0.86686 -4.6281,1.18684 -13.5925,1.1581 -19.4622,-0.0623 -19.6627,-0.3745 -19.7395,-30.53136 -0.058,-22.64991 0.2701,-21.54383 -6.4002,-21.54383 -1.8861,0 -3.9261,0.49752 -4.5346,1.10628 -1.6878,1.68761 -1.4993,40.22975 0.2284,46.72051 1.9425,7.29777 5.8927,10.77569 13.8821,12.22106 2.0289,0.36711 11.5134,0.60053 21.0744,0.5181 l 17.3838,-0.14943 2.2218,-2.76727 2.2183,-2.76727 -0.2342,-27.20941 -0.2318,-27.21249 -5.263,-0.27427 z m -463.57833,0.0823 c -5.12687,-0.0548 -10.09731,0.37772 -13.91257,1.37142 -12.00957,3.12809 -16.94564,8.62458 -19.39209,21.59567 -1.27545,6.76149 -1.26776,8.21193 0.0791,15.39975 1.63444,8.72328 2.37706,10.44485 6.46697,14.98227 3.02767,3.359 6.76176,5.26829 13.83639,7.07665 6.08719,1.55597 18.91849,1.61721 25.82878,0.12185 12.34052,-2.6703 17.53928,-7.49748 20.71816,-19.23069 1.32859,-4.90445 0.86855,-19.40873 -0.78646,-24.76519 -1.26097,-4.08158 -6.70862,-10.56178 -10.54807,-12.54718 -4.76676,-2.46499 -13.7453,-3.91298 -22.29045,-4.0046 z m 136.92789,0.009 -1.02111,2.23698 c -0.56064,1.23087 -0.76116,3.26899 -0.4449,4.52879 l 0.57601,2.29183 18.53283,0.31393 c 18.3149,0.31033 18.55633,0.34064 20.33997,2.54478 1.37288,1.69636 1.73798,3.35312 1.52976,6.91815 l -0.27104,4.68729 -17.98712,0.46021 c -17.09982,0.43845 -18.13971,0.56967 -21.07152,2.6606 -10.7972,7.70081 -7.66849,31.22715 4.4679,33.5973 1.26823,0.24767 11.32416,0.38889 22.34539,0.31391 26.46989,-0.18018 24.14507,2.14603 24.51512,-24.55187 0.31784,-22.93187 -0.26472,-26.62497 -4.89425,-30.99156 -4.23709,-3.99585 -10.33988,-5.01034 -30.14748,-5.01034 z m -25.53648,0.007 c -30.51889,0.0181 -39.22705,5.62639 -40.49096,26.07267 -1.26006,20.3847 4.91052,31.67766 18.56312,33.9691 2.0296,0.34058 10.95319,0.56269 19.83112,0.49373 l 16.14356,-0.12504 v -3.69071 -3.68764 l -16.1465,-0.59127 c -14.24354,-0.51955 -16.54145,-0.82139 -19.51417,-2.57526 -5.16258,-3.04601 -6.71315,-7.14563 -6.99731,-18.51143 -0.2125,-8.50283 0.0226,-10.18721 1.83789,-13.81194 3.49084,-6.93336 5.93956,-7.76915 23.985,-8.18295 l 15.46968,-0.35656 0.56698,-2.26746 c 0.31285,-1.24703 0.11302,-3.27357 -0.44808,-4.50443 -1.00235,-2.19953 -1.22207,-2.23774 -12.80033,-2.23087 z m -182.06625,0.0113 c -6.62273,0.009 -13.41681,0.28741 -14.43681,0.82588 -0.88095,0.46502 -2.96638,1.35223 -4.63563,1.97185 -4.04427,1.5013 -8.91003,7.34701 -10.71853,12.87634 -2.06463,6.3127 -2.01829,25.16084 0.0769,31.5645 1.99206,6.09026 7.06581,11.20002 12.90975,12.99823 3.44066,1.05865 9.08184,1.33892 24.75002,1.2282 l 20.29137,-0.14627 V 451.66111 447.05 l -18.97796,-0.4602 c -18.31491,-0.44501 -19.09686,-0.541 -22.31169,-2.74589 -2.43785,-1.67209 -3.59576,-3.32911 -4.3126,-6.17457 -2.09243,-8.31181 -3.71534,-7.68314 19.86478,-7.68314 22.71592,0 24.56081,-0.36673 26.90169,-5.32729 1.57204,-3.33103 1.43073,-9.58601 -0.33821,-14.99443 -1.72732,-5.28026 -8.05211,-11.70299 -12.37964,-12.56851 -1.5293,-0.30587 -3.00323,-0.91745 -3.27608,-1.35924 -0.33163,-0.53648 -6.78437,-0.79328 -13.40686,-0.78325 z m 812.59787,0.0548 c -6.8395,-0.0572 -13.455,0.24327 -16.0093,0.9326 -6.9463,1.87469 -6.8769,1.53401 -6.8999,32.43004 l -0.022,27.44104 h 5.5345 5.5343 V 430.8859 405.95919 l 2.5356,-0.9844 c 1.507,-0.58526 7.1111,-0.84297 13.8059,-0.63086 17.3494,0.54968 17.7861,1.32755 17.7861,31.51575 v 19.95298 h 5.5346 5.5346 v -23.32369 c 0,-22.36128 -0.086,-23.49751 -2.0754,-27.42275 -2.4629,-4.85864 -6.0976,-7.16636 -13.9156,-8.84426 -3.4459,-0.73957 -10.5077,-1.15574 -17.3474,-1.21301 z m -506.85777,0.0396 c -10.98618,0.0883 -21.10315,1.51041 -25.37168,3.6663 -8.117,4.09989 -11.84929,12.64279 -11.84929,27.12107 0,17.75248 5.56385,26.53403 18.4476,29.11726 1.7755,0.35599 10.56775,0.69441 19.53837,0.75277 15.73599,0.10238 16.33211,0.0398 16.91762,-1.80422 0.33343,-1.05124 0.36893,-2.85611 0.079,-4.01071 -0.51631,-2.05757 -0.84366,-2.10976 -16.5697,-2.61792 -17.41948,-0.56287 -20.14399,-1.25622 -23.45173,-5.9734 -3.00708,-4.28789 -4.34787,-14.09686 -2.98085,-21.80902 2.31261,-13.04633 5.05046,-14.63372 26.11518,-15.15899 l 15.49434,-0.38707 -0.27444,-4.27278 -0.27715,-4.27587 -11.06916,-0.30171 c -1.59014,-0.0437 -3.17866,-0.0583 -4.74822,-0.0457 z m 157.3167,0.002 c -10.94323,0.0845 -21.43412,1.42086 -25.28035,3.33109 -7.01133,3.48224 -10.00914,8.3524 -12.07762,19.61162 -1.01728,5.53627 -1.05819,8.39116 -0.20797,14.29653 2.04315,14.17994 7.02014,20.26122 18.74307,22.89395 1.01479,0.22787 9.62709,0.4623 19.13935,0.52115 l 17.29539,0.10677 v -4.05036 c 0,-2.84406 -0.4357,-4.22117 -1.4597,-4.61414 -0.8027,-0.30793 -8.08536,-0.55772 -16.18607,-0.55772 -15.51287,0 -17.82662,-0.49231 -21.50737,-4.55926 -2.85631,-3.15621 -4.17221,-8.26465 -4.17221,-16.19523 0,-9.21845 1.59985,-13.91963 6.03722,-17.75562 l 3.46826,-2.99888 h 15.41226 c 17.28821,0 17.80561,-0.1847 17.31371,-6.16234 l -0.2899,-3.5231 -11.52913,-0.3017 c -1.56367,-0.0411 -3.13617,-0.0546 -4.69939,-0.0426 z m 261.58277,0.34439 -0.2771,4.3124 -0.2776,4.31243 18.3988,0.2987 c 22.0061,0.35926 22.2813,0.47148 22.2813,9.13686 v 5.32117 l -18.2157,0.30171 c -20.5808,0.33873 -21.8122,0.70141 -25.262,7.46371 -2.6453,5.18563 -2.6175,16.51577 0.054,21.75411 1.9069,3.73752 3.7851,5.2422 8.317,6.66524 1.2979,0.40752 11.425,0.66379 22.5039,0.56687 l 20.1452,-0.17677 2.2245,-2.58748 c 2.2068,-2.56752 2.2234,-2.75202 2.2186,-23.06158 0,-11.25943 -0.4278,-21.99325 -0.9446,-23.85394 -1.1717,-4.21858 -6.1959,-8.74191 -10.7916,-9.71593 -1.9134,-0.40551 -11.7787,-0.73752 -21.9248,-0.73752 z m -653.96473,8.16768 c 6.47489,-0.004 13.29089,1.57579 16.27129,4.08387 4.74619,3.99347 5.73861,7.0445 5.76642,17.72818 0.0293,11.33814 -1.71423,15.92358 -7.39088,19.43182 -2.80929,1.73632 -4.98559,2.15011 -12.71151,2.41679 -17.98373,0.62075 -23.61947,-4.69673 -23.61947,-22.29356 0,-6.12503 0.41755,-8.33165 2.28278,-12.0748 2.70146,-5.42111 5.3925,-7.20379 13.19617,-8.73456 1.92764,-0.37809 4.04698,-0.55597 6.2052,-0.55774 z m -71.56507,1.13983 c 7.24665,-0.0232 9.33322,0.29584 11.60244,1.77678 4.62455,3.01757 5.34073,4.11123 5.79375,8.82601 l 0.43563,4.53487 h -17.72513 -17.72195 l 0.64904,-3.92231 c 0.85136,-5.13906 1.68597,-6.59923 5.20238,-9.1033 2.54025,-1.80879 4.09557,-2.08748 11.76384,-2.11205 z m 666.0365,0.37791 12.6845,0.0672 c 19.5129,0.10373 21.3092,1.81202 21.3092,20.22725 0,12.92149 -0.8271,15.43585 -6.2965,19.13927 -2.7813,1.88335 -4.1523,2.07543 -14.8206,2.07543 -9.8689,0 -11.8455,-0.23497 -12.3157,-1.45981 -0.3077,-0.80247 -0.5609,-10.1424 -0.5609,-20.75451 z m -63.7108,22.01319 0.5942,2.37107 c 0.7721,3.07642 0.1289,15.85383 -0.8471,16.83216 -0.8108,0.81175 -23.3983,1.30097 -27.5721,0.59735 -3.7713,-0.63572 -5.3186,-3.5542 -5.2848,-9.96581 0.047,-9.14164 0.1538,-9.19864 17.9628,-9.54221 z m 163.3295,0.125 v 9.56962 9.56964 l -2.8831,0.576 c -3.1945,0.63892 -21.167,0.56851 -24.7895,-0.0974 -3.3124,-0.60906 -4.2423,-1.63762 -5.4705,-6.03131 -1.4057,-5.02842 0.25,-10.68881 3.6268,-12.39482 1.5427,-0.77936 6.8098,-1.17027 15.9117,-1.17941 z m -535.43243,0.12186 c 1.63307,0.007 3.34686,0.0264 5.05928,0.0639 l 12.45243,0.27428 0.26223,9.00276 c 0.26223,8.95027 0.25183,9.01016 -2.13358,9.91707 -2.27124,0.86354 -19.72462,1.03341 -25.90201,0.25294 -3.61723,-0.45698 -5.43387,-3.6274 -5.43387,-9.48733 0,-5.75833 1.8528,-9.06056 5.45218,-9.71591 1.17574,-0.21407 5.34367,-0.32711 10.24334,-0.3078 z m 512.37383,33.92036 v 6.04044 6.03738 h 6.5007 6.5007 l -0.2744,-5.76613 -0.2771,-5.76615 -6.2265,-0.27125 z" />
  </g>
</svg>
